<?xml version="1.0" encoding="UTF-8"?>
<svg width="1107px" height="1118px" viewBox="0 0 1107 1118" version="1.1" xmlns="http://www.w3.org/2000/svg" xmlns:xlink="http://www.w3.org/1999/xlink">
    <title>Screenshot_2026-01-12_at_7.43.05CAM Copy</title>
    <g id="Screenshot_2026-01-12_at_7.43.05CAM-Copy" stroke="none" fill="none" fill-rule="nonzero">
        <path d="M548,10.5243 C600.653,1.2115 577.142,71.278 612,79.728 C652.071,89.441 698.111,85.399 739,85.941 C744.378029,86.0121765 749.686766,85.3996401 754.964037,84.7380745 L756.402541,84.5569088 C756.642172,84.5266709 756.881744,84.4964508 757.121262,84.4663083 L758.557745,84.2868603 C768.369645,83.0735056 778.102118,82.1908529 788,85.747 C820.739,97.511 802.577,134.432 825.043,150.022 C841.73,161.602 862.699,153.8 877.734,171.008 C883.1993,177.26364 884.942563,185.623627 886.3519,194.062599 L886.643152,195.829362 C886.675228,196.025644 886.70725,196.221892 886.739262,196.418082 L886.931555,197.594304 C888.570808,207.582691 890.40536,217.28464 898.088,223.321 C904.71442,228.52554 912.381043,230.195273 920.163776,231.548052 L921.303434,231.744131 C932.136022,233.592479 943.1059,235.13161 951.73,245.008 C957.678235,251.812706 959.266055,260.539405 960.630729,269.240037 L960.834273,270.544693 C960.901908,270.979351 960.969503,271.4137 961.037574,271.847497 L961.243733,273.146988 C962.59978,281.579745 964.333647,289.709941 970.28,295.732 C977.8612,303.40692 987.790768,305.007059 997.698885,306.671884 L999.049636,306.899883 C1011.2012,308.965862 1023.1582,311.5496 1030.54,326 C1036.04345,336.765517 1035.18706,347.969387 1033.81668,359.251844 L1033.66815,360.460963 C1033.64315,360.662527 1033.61806,360.864113 1033.59291,361.065717 L1033.36568,362.880612 C1032.73469,367.923098 1032.12609,372.973563 1032.06,378 C1031.64,409.962 1030.88,445.377 1034.82,477 C1036.36,489.331 1034.32,506.72 1042.52,516.951 C1059.61,538.271 1101.78,519.504 1106.74,558 C1113.64,611.572 1046.57,585.279 1037.95,621 C1028.31,660.899 1032.04,708.285 1032.04,749 C1032.04,754.60625 1032.73557,760.156557 1033.42904,765.679632 L1033.60944,767.119836 L1033.78699,768.558917 C1034.98425,778.389063 1035.78926,788.148544 1032.25,798 C1026.0437,815.28171 1012.73063,818.354374 999.272279,820.761929 L997.748445,821.032369 C986.32065,823.050275 974.9775,824.95715 967.98,835.043 C963.556061,841.418121 962.03259,848.511764 960.818695,855.672171 L960.634036,856.774211 L960.452164,857.876776 C960.361576,858.428103 960.271247,858.979429 960.179999,859.530458 L959.995926,860.632032 C958.41494,869.990547 956.340909,879.20603 947.98,886.821 C941.637576,892.596212 933.309414,894.531336 924.874327,896.019168 L923.66879,896.229038 C923.065861,896.332819 922.462842,896.435141 921.86042,896.537243 L920.656571,896.741516 C910.6345,898.447443 900.904677,900.320848 894.637,908.086 C889.23874,914.77408 887.612265,922.633985 886.25825,930.624261 L886.066295,931.766503 C885.939057,932.528439 885.812778,933.291108 885.684437,934.05361 L885.49,935.197125 C883.8505,944.7235 881.6525,954.1535 872.992,961.73 C866.019106,967.831765 857.025987,969.345388 848.110491,970.73299 L846.806582,970.935672 C837.686505,972.355399 828.755271,973.871294 822.268,980.28 C814.56085,987.8895 813.059717,997.929 811.401526,1007.93083 L811.178944,1009.26397 C809.194717,1021.03423 806.60033,1032.6001 793,1039.93 C781.883121,1045.92121 770.459943,1045.13242 758.882711,1043.77245 L757.684523,1043.62998 C757.284948,1043.58198 756.885196,1043.53356 756.485273,1043.48497 L755.284999,1043.33893 L754.083738,1043.1934 L752.881529,1043.04991 C752.681083,1043.02624 752.4806,1043.00273 752.280079,1042.9794 L751.076516,1042.84182 C747.06319,1042.39213 743.035604,1042.04 739,1042.04 C732.626759,1042.04 726.316699,1042.62901 720.005984,1043.28274 L715.271828,1043.77697 C707.90429,1044.53917 700.514138,1045.21103 693,1044.96 C665.803,1044.04 634.467,1039.57 608,1049.46 C594.6125,1054.4595 591.757025,1067.28157 588.974247,1080.52688 L588.602723,1082.29477 C585.308507,1097.92189 581.4703,1113.6799 560,1117.48 C507.368,1126.78 530.951,1056.74 496,1048.27 C456.19,1038.62 409.611,1042.04 369,1042.04 C364.341833,1042.04 359.711264,1042.5389 355.097412,1043.11705 L353.640949,1043.30177 C342.721457,1044.69957 331.889318,1046.29409 321,1042.51 C287.328,1030.83 305.8,993.83 282.957,977.98 C276.254949,973.329192 268.758793,971.883964 261.225789,970.634107 L259.571908,970.361706 C249.464864,968.701802 239.391222,966.997111 231.179,957.981 C225.266283,951.488869 223.378692,942.913995 221.875274,934.273513 L221.667621,933.067642 C221.564675,932.464696 221.462775,931.861888 221.360684,931.259902 L221.155881,930.057229 C219.475264,920.247672 217.523848,910.779323 209.914,904.637 C203.22592,899.23874 195.366015,897.612265 187.375443,896.25825 L186.233156,896.066295 C185.471189,895.939057 184.708487,895.812778 183.945948,895.684437 L182.802375,895.49 C173.2755,893.8505 163.8445,891.6525 156.266,882.992 C143.618,868.536 150.686,845.397 137.72,832.268 C130.13,824.58252 120.20228,822.985179 110.297374,821.325011 L108.947068,821.097658 C96.7995776,819.037572 84.84806,816.46174 77.456,802 C71.6855287,790.709977 72.8701589,778.836338 74.3523353,766.925199 L74.5038315,765.713788 C74.5544993,765.309956 74.6052496,764.906102 74.6558232,764.502247 L74.8067544,763.290703 C75.3563229,758.848523 75.8531264,754.408851 75.952,750 C76.655,718.686 77.324,682.968 73.304,652 C71.702,639.652 73.543,622.285 65.481,612.022 C58.44423,603.06409 47.7648931,600.629293 37.0515896,598.56172 L35.4036078,598.245698 C19.2053889,595.150319 3.352958,592.17289 0.3403,568 C-3.1786,539.76575 15.5246642,534.510307 34.5193056,529.792347 L36.5915496,529.278713 C51.4358009,525.597487 65.9707,521.74599 69.716,507 C79.894,466.926 75.398,419.969 75.941,379 C76.01575,373.377515 75.3429901,367.830764 74.6480611,362.316526 L74.4667494,360.878738 C73.1705802,350.579471 72.0173824,340.380706 75.747,330 C81.83412,313.05944 94.7726352,309.770024 107.974077,307.369607 L109.498112,307.095856 L111.022231,306.825637 C122.193922,304.846346 133.191,302.80068 140.022,292.957 C144.3066,286.78281 145.937804,280.022414 147.164201,273.193284 L147.359882,272.085336 C147.584867,270.792219 147.799713,269.497642 148.019646,268.205111 L148.209762,267.097809 C149.874384,257.506954 152.05984,248.0842 161.008,240.266 C167.40912,234.6736 176.013602,232.978368 184.651468,231.550273 L185.829362,231.356848 C186.025644,231.324772 186.221892,231.29275 186.418082,231.260738 L187.594304,231.068445 L188.767883,230.874349 C198.337991,229.276312 207.52136,227.29336 213.321,219.912 C226.015,203.755 217.681,181.405 235.008,166.266 C249.468,153.632 272.607,160.683 285.732,147.72 C302.972,130.694 289.425,102.256 315,87.987 C326.267571,81.699978 338.25409,82.8163126 350.288767,84.3067318 L354.432741,84.8239831 L355.616582,84.968279 L356.800094,85.1082986 C360.547216,85.5433537 364.287275,85.8917253 368,85.941 C374.816,86.0316667 381.601185,85.4023333 388.39594,84.7027449 L391.794301,84.3501041 C399.159956,83.5863992 406.544741,82.8673333 414,83.019 C419.768066,83.1359231 425.703794,83.4471 431.73058,83.7748234 L433.636714,83.8786577 L435.548365,83.9823485 C457.242986,85.1519989 479.897407,86.0543846 500,78.543 C513.32855,73.56285 516.184408,60.7408267 518.982613,47.4906962 L519.35628,45.7221261 C522.670139,30.0888456 526.54613,14.318782 548,10.5243 Z M512,153.439 C495.785,155.288 461.85,153.029 450.508,166.163 C434.694,184.475 447.757,211.866 421,225.544 C405.08284,233.68045 385.813164,231.881562 366.290905,230.096441 L363.899372,229.8786 C344.361659,228.111179 324.69789,226.76361 308.008,235.785 C287.632,246.798 298.003,281.995 277,297.121 C271.5906,301.01673 264.439421,302.545733 257.107285,303.793088 L255.916951,303.993223 C254.725523,304.191547 253.531555,304.385429 252.341703,304.583759 L251.15347,304.783902 C240.673882,306.570748 230.68856,308.93599 225.785,318.008 C216.225,335.694 216.069,372.417 218.32,392 C220.119,407.648 224.17,426.761 214.759,440.957 C208.2196,450.82055 196.49782,452.183555 184.703494,453.085062 L183.130936,453.203234 C169.244135,454.235398 155.57173,455.12301 150.462,469 C142.6206,490.294 143.9275,513.13934 145.417366,535.561026 L145.609223,538.441324 C145.630495,538.761064 145.651727,539.080699 145.672891,539.400225 L145.798861,541.316021 C146.297843,548.973581 146.728,556.56144 146.728,564 C146.728,571.84449 145.985643,579.385106 145.292435,586.881265 L145.086739,589.129038 C144.174864,599.240351 143.496816,609.317918 145,620 C146.847,633.124 145.168,652.778 152.978,663.951 C167.711,685.032 202.007,669.375 215.948,698 C231.823,730.596 205.959,777.842 226.347,810.979 C232.52515,821.02035 244.208195,822.11617 256.118554,822.962382 L258.718754,823.146395 C267.601224,823.784429 276.39672,824.6352 282.919,829.301 C292.9444,836.47313 293.975894,848.13513 294.73445,859.78222 L294.826563,861.208013 C295.577367,872.846381 296.41119,884.28597 306.049,891.022 C337.383,912.922 385.5,887.801 418,901.158 C434.58847,907.97539 437.631942,920.690275 439.913293,933.583993 L440.16899,935.044116 C442.072605,945.996157 443.77455,956.92155 453.099,964.32 C462.67,971.91 478.508,970.25 490,971.86 C512.334,974.98 531.925,970.94 554,971.35 C571.35,971.68 587.563,975.68 605,973.68 C619.724,971.99 648.475,973.72 658.238,960.91 C672.156,942.646 659.627,915.004 685,902.564 C700.4606,894.98366 718.666498,896.167369 737.207656,897.825409 L739.627771,898.043683 C760.615146,899.946901 781.89704,901.99568 799.992,892.215 C820.477,881.143 809.882,845.974 831,830.884 C836.87,826.69 844.75456,825.25392 852.696368,823.942288 L853.887824,823.746147 C865.404651,821.85278 876.83608,819.94422 882.215,809.992 C890.97345,793.78875 889.662173,774.11494 887.931622,754.559316 L887.709167,752.063772 C885.811577,730.861805 883.90384,709.97881 894.316,694 C908.989,671.484 948.97,682.26 957.54,659 C964.372,640.4438 964.256893,620.709531 963.127962,601.104151 L963.01386,599.176214 C962.896906,597.248786 962.772025,595.323019 962.644864,593.400157 L962.517153,591.47831 L962.389175,589.558676 C961.814563,580.925717 961.27,572.36838 961.27,564 C961.27,557.332184 961.806835,550.883916 962.394002,544.495883 L962.602536,542.243525 C963.64773,530.991645 964.671429,519.86898 963,508 C961.15,494.876 962.83,475.222 955.02,464.049 C948.5344,454.76764 938.171573,452.662258 927.445529,450.750746 L925.980965,450.490632 C912.78557,448.148612 899.28368,445.62058 891.971,430 C876.592,397.148 902.022,350.126 881.653,317.021 C875.74562,307.42005 864.696365,305.967447 853.231039,305.085501 L851.931554,304.987689 C842.175895,304.266272 832.24885,303.7501 825.043,298.801 C804.228,284.505 821.69,250.774 801.951,236.978 C770.396,214.923 721.704,240.505 689,226.473 C673.11749,219.65879 670.094863,207.458322 667.928613,194.944135 L667.68639,193.526366 C665.887485,182.887142 664.3794,172.15975 655.815,164.449 C646.815,156.346 631.256,157.833 620,156.431 C596.927,153.557 576.875,156.728 554,156.728 C548.152512,156.728 542.284346,155.873054 536.414648,154.995559 L534.458052,154.703368 C526.95775,153.588855 519.458419,152.588535 512,153.439 Z" id="Combined-Shape" fill="#171515"></path>
        <path d="M411,330.446 C370.103,335.529 384.354,367.989 367.215,391.979 C355.2,408.797 327.243,400.523 312.086,415.158 C296.567,430.141 304.868,454.758 290.813,468.813 C274.277,485.35 239.459,468.082 229.002,494.001 C222.117,511.066 227.642,530.47 228.864,548 C230.989,578.49 217.441,627.021 267,623.914 C308.906,621.287 287.582,572.017 313.008,557.534 C330.316,547.675 350.259,554.384 364.581,536.997 C376.623,522.378 369.721,497.56 384.099,485.508 C400.084,472.108 423.487,481.213 438.581,462.992 C450.503,448.601 444.039,426.207 456.317,413.185 C473.395,395.072 503.991,409.869 517.029,382 C519.443,376.841 520.042,371.629 519.994826,366 C519.588,320.946 471.953,334.337 444,332.922 C433.018,332.366 422.025,329.076 411,330.446" id="Path" fill="#FF3530"></path>
        <path d="M628,305.457 C595.08,309.851 578.303,351.206 609,371.813 C623.119,381.291 646.314,375.598 657.363,389.099 C670.278,404.88 657.659,432.754 675.099,446.24 C690.7,458.303 715.486,447.908 729.815,461.322 C751.558,481.678 734.229,532.014 783,524.631 C801.02,521.903 810.751,505.774 812.672,489 C816.951,451.641 807.503,411.527 810.136,374 C811.413,355.804 818.828,331.378 806.813,315.158 C796.425,301.135 771.94,304.409 757,306.302 C714.862,311.641 669.881,299.867 628,305.457" id="Path" fill="#FF3530"></path>
        <path d="M392.144197,274.726638 C368.902865,277.821937 357.058399,306.953954 378.730306,321.470299 C388.698239,328.146958 405.073777,324.136595 412.874307,333.647207 C421.992224,344.763937 413.083282,364.39943 425.395822,373.899475 C436.410039,382.397106 453.908814,375.074477 464.025006,384.523803 C479.37544,398.863335 467.141265,434.321905 501.573312,429.121042 C514.295329,427.199337 521.16536,415.837463 522.521575,404.021227 C525.542524,377.704143 518.87229,349.446333 520.731173,323.010904 C521.632728,310.192958 526.867676,292.986365 518.385154,281.560387 C511.051286,271.682059 493.765015,273.988388 483.217461,275.321888 C453.468273,279.08288 421.711944,270.788832 392.144197,274.726638" id="Path-Copy" fill="#FF3530"></path>
        <path d="M706.144197,584.726638 C682.902865,587.821937 671.058399,616.953954 692.730306,631.470299 C702.698239,638.146958 719.073777,634.136595 726.874307,643.647207 C735.992224,654.763937 727.083282,674.39943 739.395822,683.899475 C750.410039,692.397106 767.908814,685.074477 778.025006,694.523803 C793.37544,708.863335 781.141265,744.321905 815.573312,739.121042 C828.295329,737.199337 835.16536,725.837463 836.521575,714.021227 C839.542524,687.704143 832.87229,659.446333 834.731173,633.010904 C835.632728,620.192958 840.867676,602.986365 832.385154,591.560387 C825.051286,581.682059 807.765015,583.988388 797.217461,585.321888 C767.468273,589.08288 735.711944,580.788832 706.144197,584.726638" id="Path-Copy-2" fill="#FF3530"></path>
        <path d="M623,454.524 C578.105,462.402 582.331,534.442 633,525.476 C677.913,517.528 673.97,445.58 623,454.524" id="Path" fill="#FF3530"></path>
        <path d="M549,528.524 C504.098,536.47 508.278,608.452 559,599.476 C603.902,591.53 599.722,519.548 549,528.524" id="Path" fill="#FF3530"></path>
        <path d="M475,602.524 C430.099,610.47 434.026,682.495 485,673.476 C529.91,665.529 525.649,593.561 475,602.524" id="Path" fill="#FF3530"></path>
        <path d="M744,594.596 C704.561,602.855 729.239,646.665 704.979,661.852 C687.605,672.729 666.971,662.255 651.266,680.019 C637.78,695.274 647.78,722.143 632.9,734.481 C615.969,748.521 591.559,735.412 575.623,756.003 C563.783,771.301 574.326,795.729 562.363,808.575 C545.636,826.537 514.552,806.106 498.987,834 C486.328,856.686 502.676,884.841 528,886.855 C543.501,888.089 557.51,879.294 573,880.078 C586.205,880.747 598.633,884.914 612,882.478 C651.489,875.284 622.617,834.685 642.188,816.324 C657.63,801.837 683.869,817.445 700.951,800.901 C717.484,784.889 703.999,754.068 721.049,741.796 C741.393,727.152 770.038,746.351 783.069,715 C789.5,699.529 783.268,683.82 783.059,668 C782.683,639.501 796.299,583.643 744,594.596" id="Path" fill="#FF3530"></path>
        <path d="M402,676.481 C356.563,683.413 359.027,755.311 410,747.758 C454.903,741.105 452.739,668.741 402,676.481" id="Path" fill="#FF3530"></path>
        <path d="M328,750.519 C281.991,758.322 285.346,831.138 337,821.672 C381.019,813.605 378.036,742.033 328,750.519" id="Path" fill="#FF3530"></path>
    </g>
</svg>