<svg xmlns="http://www.w3.org/2000/svg" width="232" height="154" fill="none" viewBox="0 0 232 154"><path fill="#F5F5F5" stroke="#9F9F9F" stroke-width=".4" d="M94.411 42.133c0 22.68-18.052 41.058-40.312 41.058-22.26 0-40.312-18.379-40.312-41.058 0-22.68 18.052-41.058 40.312-41.058 22.26 0 40.312 18.379 40.312 41.058Z"/><mask id="a" fill="#fff"><path d="M0 153.002s1.565-2.041 14.668-9.701c13.103-7.661 18.741-19.454 21.206-24.056s2.132-6.744 7.14-10.935c5.007-4.191 11.502-9.081 12.444-13.034.942-3.953 16.708-30.223 15.921-33.447-.786-3.225-2.684-4.588-.39-6.572 2.296-1.983 3.45.296 5.355-3.123 1.906-3.419 5.37-3.484 4.81-5.554-.56-2.07.403-11.577.403-11.577l8.082-11.577 8.796 1.63 1.863 1.125 32.835 43.387s1.913 14.42 2.529 15.047c.616.627 11.099 8.18 11.099 8.18l18.145 9.658s9.102 6.355 16.418 8.331c7.317 1.976 27.998 12.839 27.998 12.839s12.522 13.135 12.919 13.763c.397.628 6.998 15.739 6.998 15.739L.014 153.002H0Z"/></mask><path fill="#fff" d="M0 153.002s1.565-2.041 14.668-9.701c13.103-7.661 18.741-19.454 21.206-24.056s2.132-6.744 7.14-10.935c5.007-4.191 11.502-9.081 12.444-13.034.942-3.953 16.708-30.223 15.921-33.447-.786-3.225-2.684-4.588-.39-6.572 2.296-1.983 3.45.296 5.355-3.123 1.906-3.419 5.37-3.484 4.81-5.554-.56-2.07.403-11.577.403-11.577l8.082-11.577 8.796 1.63 1.863 1.125 32.835 43.387s1.913 14.42 2.529 15.047c.616.627 11.099 8.18 11.099 8.18l18.145 9.658s9.102 6.355 16.418 8.331c7.317 1.976 27.998 12.839 27.998 12.839s12.522 13.135 12.919 13.763c.397.628 6.998 15.739 6.998 15.739L.014 153.002H0Z"/><path fill="#9F9F9F" d="m0 153.002-.317-.243-.494.643H0v-.4ZM81.557 35.003l-.328-.229-.06.085-.01.104.398.04Zm8.082-11.577.073-.393-.254-.047-.147.211.328.229Zm8.796 1.63.207-.342-.062-.038-.072-.013-.073.393Zm1.863 1.125.319-.241-.046-.061-.066-.04-.207.342Zm32.835 43.387.397-.052-.014-.105-.064-.084-.319.241Zm13.628 23.227-.234.324.022.016.024.013.188-.353Zm18.145 9.658.229-.328-.019-.014-.022-.011-.188.353Zm44.416 21.17.29-.276-.046-.047-.058-.031-.186.354Zm19.917 29.502-.001.4h.612l-.245-.56-.366.16ZM.014 153.002v-.4.4Zm-.014 0 .317.244v.001l-.001.001-.002.002.008-.01.058-.062a6.01 6.01 0 0 1 .334-.315c.34-.3.934-.786 1.941-1.515 2.015-1.457 5.67-3.875 12.215-7.702l-.404-.691c-6.557 3.834-10.236 6.267-12.28 7.745-1.022.739-1.638 1.242-2.002 1.564a6.521 6.521 0 0 0-.465.451.456.456 0 0 0-.031.037l-.003.004-.001.002c-.001.001-.001.001.316.244Zm14.87-9.356c13.213-7.724 18.896-19.619 21.357-24.212l-.706-.378c-2.47 4.611-8.062 16.303-21.055 23.899l.404.691Zm21.357-24.212c2.519-4.704 2.115-6.693 7.043-10.817l-.514-.614c-5.086 4.257-4.825 6.553-7.235 11.053l.706.378Zm7.043-10.817c2.49-2.085 5.386-4.371 7.765-6.623 1.192-1.128 2.266-2.257 3.104-3.362.835-1.1 1.454-2.198 1.708-3.263l-.779-.186c-.217.911-.763 1.907-1.567 2.966-.8 1.055-1.84 2.151-3.016 3.264-2.356 2.229-5.212 4.484-7.728 6.59l.513.614Zm12.577-13.248c.106-.448.437-1.255.96-2.362a118.08 118.08 0 0 1 2.001-3.987c1.598-3.067 3.629-6.816 5.612-10.553 1.98-3.733 3.911-7.45 5.299-10.44.693-1.493 1.254-2.813 1.619-3.867.182-.526.318-.995.395-1.391.075-.384.105-.746.035-1.035l-.777.19c.028.114.027.334-.043.691-.068.346-.19.776-.366 1.284-.351 1.015-.9 2.307-1.589 3.792-1.377 2.967-3.3 6.668-5.28 10.4-1.978 3.728-4.016 7.49-5.614 10.56a118.97 118.97 0 0 0-2.016 4.014c-.518 1.099-.886 1.978-1.015 2.518l.779.186Zm15.921-33.635a14.694 14.694 0 0 0-.734-2.166c-.26-.63-.485-1.133-.62-1.601-.132-.456-.161-.83-.058-1.188.104-.359.358-.754.895-1.219l-.523-.605c-.61.527-.98 1.046-1.14 1.601-.161.557-.097 1.097.057 1.633.151.523.404 1.09.65 1.684.25.606.507 1.274.696 2.05l.777-.19Zm-.517-6.174c.528-.456.976-.656 1.375-.76.431-.11.777-.11 1.239-.17.442-.057.91-.169 1.396-.52.477-.345.941-.898 1.433-1.781l-.699-.39c-.46.827-.856 1.271-1.203 1.523-.338.244-.66.327-1.03.375-.352.046-.844.063-1.335.19-.522.133-1.08.392-1.699.928l.523.605Zm5.443-3.231c.9-1.617 2.165-2.441 3.204-3.147.505-.342 1.001-.686 1.323-1.094.349-.444.493-.965.319-1.612l-.773.209c.105.388.027.65-.175.908-.23.293-.614.568-1.144.927-1.029.7-2.449 1.617-3.453 3.42l.699.389Zm4.846-5.853c-.124-.456-.171-1.383-.16-2.574.012-1.172.08-2.546.165-3.86a152.566 152.566 0 0 1 .4-4.892l.008-.08.002-.02v-.006l-.398-.04-.398-.041v.007l-.003.02-.008.081a154.962 154.962 0 0 0-.402 4.918 74.39 74.39 0 0 0-.165 3.905c-.012 1.174.03 2.211.186 2.79l.773-.208Zm.345-11.244 8.082-11.577-.656-.458-8.082 11.577.656.458Zm7.68-11.413 8.797 1.63.146-.786-8.796-1.63-.146.786Zm8.663 1.58 1.863 1.125.414-.685-1.863-1.125-.413.685Zm1.751 1.024 32.836 43.387.637-.483-32.835-43.387-.638.483Zm33.154 43.145-.396.053v.003l.001.008.005.03.016.121.061.46c.054.396.131.962.226 1.643.189 1.363.447 3.186.725 5.03.278 1.843.575 3.71.843 5.156.133.722.26 1.346.374 1.811.057.232.112.432.166.589.026.078.055.152.085.216a.768.768 0 0 0 .138.207l.57-.56c.029.029.031.045.015.01a1.222 1.222 0 0 1-.051-.132 5.953 5.953 0 0 1-.146-.52 33.439 33.439 0 0 1-.365-1.766c-.264-1.434-.56-3.29-.838-5.13-.277-1.84-.535-3.66-.724-5.02l-.225-1.642-.061-.458-.016-.12-.005-.03-.001-.009v-.002l-.397.052Zm2.244 15.327c.101.103.359.31.695.568.348.269.81.617 1.345 1.016 1.071.797 2.441 1.8 3.79 2.784a1174.729 1174.729 0 0 0 4.868 3.53l.334.241.088.063.022.017a.043.043 0 0 1 .007.005h.001l.234-.325.233-.324-.001-.001a.024.024 0 0 1-.006-.004l-.023-.017-.087-.063-.334-.24-1.195-.864c-.993-.718-2.322-1.681-3.67-2.664a511.97 511.97 0 0 1-3.783-2.78c-.534-.398-.992-.743-1.335-1.007a9.83 9.83 0 0 1-.613-.495l-.57.56Zm11.196 8.253 18.146 9.658.375-.706-18.145-9.659-.376.707Zm18.333 9.305-.228.328.001.001.006.004a.47.47 0 0 0 .02.014l.079.054.304.207a88.775 88.775 0 0 0 5.084 3.163c3.197 1.84 7.338 3.944 11.048 4.946l.209-.772c-3.607-.974-7.675-3.036-10.858-4.867a88.753 88.753 0 0 1-3.911-2.39 68.137 68.137 0 0 1-1.124-.743l-.299-.203-.076-.053-.019-.013-.005-.003-.001-.001-.23.328Zm16.314 8.717c3.614.976 10.577 4.167 16.672 7.134a468.752 468.752 0 0 1 10.343 5.204l.668.347.174.091.044.024a.036.036 0 0 1 .011.006l.003.001h.001l.186-.354.186-.354h-.001l-.003-.002-.011-.006-.045-.023a466.617 466.617 0 0 0-11.206-5.653c-6.075-2.958-13.111-6.187-16.813-7.187l-.209.772Zm28.102 12.453-.289.277.002.002.007.007.026.028.105.11.398.418 1.424 1.496c1.18 1.241 2.757 2.902 4.347 4.583a880.09 880.09 0 0 1 4.42 4.7c.615.659 1.135 1.222 1.514 1.639.189.209.342.38.453.507l.13.154c.036.044.046.059.044.056l.676-.428a3.235 3.235 0 0 0-.247-.306c-.116-.134-.273-.31-.464-.52-.382-.422-.905-.988-1.52-1.648a893.715 893.715 0 0 0-4.425-4.703c-1.59-1.682-3.168-3.344-4.348-4.585l-1.424-1.497-.399-.418-.104-.11-.027-.028-.007-.007-.002-.002-.29.275Zm12.581 13.977.01.018.027.051.085.171c.068.142.158.334.267.57.218.471.508 1.112.845 1.864.674 1.503 1.536 3.45 2.386 5.378.849 1.928 1.687 3.836 2.312 5.263l.753 1.72.21.48.055.127.014.032.004.008.001.002v.001l.367-.16.366-.16v-.001l-.001-.002-.004-.008-.014-.033-.055-.126-.21-.481-.754-1.72c-.625-1.427-1.462-3.336-2.312-5.265-.85-1.928-1.713-3.877-2.388-5.383-.338-.753-.629-1.396-.848-1.871-.11-.238-.202-.435-.274-.583a3.99 3.99 0 0 0-.166-.32l-.676.428Zm7.336 15.125L.014 152.602v.8l229.224.123.001-.8ZM.014 152.602H0v.8h.014v-.8Z" mask="url(#a)"/><path fill="#F5F5F5" stroke="#9F9F9F" stroke-width=".4" d="m228.959 152.894-.162-.37-.753-1.721c-.625-1.427-1.462-3.336-2.312-5.265-.85-1.928-1.712-3.876-2.386-5.38-.338-.752-.628-1.393-.846-1.864a30.632 30.632 0 0 0-.269-.572 3.411 3.411 0 0 0-.132-.259l-.032-.049a6.767 6.767 0 0 0-.161-.191 31.86 31.86 0 0 0-.456-.51c-.379-.418-.9-.981-1.515-1.641a971.238 971.238 0 0 0-4.421-4.7c-1.59-1.682-3.168-3.344-4.348-4.586l-1.424-1.497-.398-.418-.104-.11-.014-.014-.03-.016-.174-.091-.669-.348a470.112 470.112 0 0 0-10.347-5.205c-6.09-2.965-13.071-6.165-16.708-7.148-3.684-.995-7.806-3.088-11-4.926a88.894 88.894 0 0 1-5.072-3.155l-.302-.206-.079-.054-.017-.012-18.135-9.653-.012-.006-.011-.008.011-.015-.011.015-.002-.001-.005-.005-.023-.016-.088-.063-.334-.24-1.197-.865c-.993-.718-2.323-1.682-3.673-2.665a489.447 489.447 0 0 1-3.788-2.784 96.529 96.529 0 0 1-1.342-1.013c-.34-.263-.585-.46-.673-.55a.558.558 0 0 1-.098-.153 1.853 1.853 0 0 1-.077-.195 7.242 7.242 0 0 1-.159-.571 33.57 33.57 0 0 1-.371-1.8 169.022 169.022 0 0 1-.842-5.15 467.63 467.63 0 0 1-.727-5.027c-.095-.681-.172-1.247-.226-1.643a48.962 48.962 0 0 0-.062-.459l-.014-.11-32.781-43.314-1.799-1.087-8.358-1.548 5.224 10.05.03.018a14.579 14.579 0 0 1 1.044.695 18.009 18.009 0 0 1 2.506 2.22c1.832 1.956 3.743 4.896 4.061 8.827l5.724 3.323.049.029.027.05 2.663 4.984.043.081-.033.086-2.62 6.719 2.188 2.549.078.09 117.944 89.513Zm0 0-106.052-.057c-.525-3.71-.54-7.288-.547-10.18v-.001c-.017-4.279-.285-6.245-.636-7.55a14.255 14.255 0 0 0-.458-1.375 29.29 29.29 0 0 1-.1-.269 11.824 11.824 0 0 1-.531-1.845c-.314-1.554.101-3.359.609-4.796a18.012 18.012 0 0 1 .993-2.278l.072-.136.019-.034.005-.008.001-.002v-.001l.042-.073-.023-.081c-.858-2.972-1.286-5.391-1.5-7.065a29.555 29.555 0 0 1-.187-1.928 16.21 16.21 0 0 1-.026-.627l-.001-.031V114.544l-.17-10.864v-.003l.17-11.733.001-.067-.04-.054c-6.726-9.146-9.125-16.246-9.847-21.047-.361-2.401-.303-4.23-.157-5.453.073-.612.169-1.074.245-1.38a6.322 6.322 0 0 1 .123-.427l.007-.02.002-.004 117.986 89.402Z"/><path fill="#F5F5F5" stroke="#9F9F9F" stroke-width=".4" d="m177.337 132.361-4.943-.396 8.261-13.131.176-.28-.33-.026-4.91-.386 11.029-14.794.215-.288-.358-.031-4.606-.396 10.494-18.572.318-.039 10.444 18.469-4.614.389-.358.03.215.288 11.03 14.795-4.911.394-.329.027.175.279 8.261 13.13-4.942.389-.308.024.148.271 11.082 20.233-8.901-.119-.297-.004.018.047-42.983.228 11.083-20.235.148-.271-.307-.025Z"/><path fill="#fff" stroke="#9F9F9F" stroke-width=".4" d="m198.739 137.041-3.881-.3 6.565-10.071.185-.283-.337-.025-3.848-.292 8.771-11.353.224-.292-.366-.03-3.617-.3 8.371-14.296.166-.022 8.326 14.208-3.623.295-.367.03.225.291 8.771 11.354-3.849.298-.336.026.184.282 6.565 10.071-3.88.294-.315.024.156.274 8.825 15.55-7.047-.091-.3-.004.015.037-34.251.176 8.827-15.553.155-.273-.314-.025Z"/><path fill="#F5F5F5" stroke="#9F9F9F" stroke-width=".4" d="m183.987 58.885.05.127H186.74c3.055 0 5.541 2.552 5.541 5.712 0 3.16-2.486 5.712-5.541 5.712h-28.118c-1.865 0-3.388-1.559-3.388-3.495 0-1.935 1.523-3.495 3.388-3.495h2.683l.031-.162c.468-2.44 2.554-4.272 5.05-4.272.731 0 1.426.16 2.057.444l.202.091.07-.21c1.093-3.318 4.137-5.7 7.717-5.7 3.417 0 6.344 2.169 7.555 5.248Z"/></svg>
