<svg xmlns="http://www.w3.org/2000/svg" viewBox="0 0 50 50"><g fill="none" fill-rule="evenodd"><path fill="#A2BFFF" d="m22.665 4.214 3.613 1.51c.553.231.98.688 1.174 1.255l1.436 4.198a2.1 2.1 0 0 0 1.485 1.357l15.03 3.676A2.095 2.095 0 0 1 47 18.245v17.537a2.095 2.095 0 0 1-2.711 2.003L21.24 30.693a2.095 2.095 0 0 1-1.48-2.002V6.147a2.095 2.095 0 0 1 2.904-1.933Z" opacity=".504"></path><path fill="#A0BDFF" d="m17.427 8.404 3.613 1.51c.552.231.98.688 1.174 1.255l1.436 4.199c.231.675.79 1.187 1.485 1.357l15.03 3.675a2.095 2.095 0 0 1 1.597 2.036v17.537a2.095 2.095 0 0 1-2.712 2.002l-23.047-7.091a2.095 2.095 0 0 1-1.48-2.003V10.337a2.095 2.095 0 0 1 2.904-1.933" opacity=".8"></path><path fill="#1A47FF" d="m12.19 11.966 3.611 1.51c.553.231.98.688 1.175 1.255l1.436 4.198c.231.676.79 1.188 1.485 1.357l15.03 3.676a2.095 2.095 0 0 1 1.597 2.036v17.537a2.095 2.095 0 0 1-2.712 2.002l-23.047-7.091a2.095 2.095 0 0 1-1.48-2.003V13.899a2.095 2.095 0 0 1 2.904-1.933Z"></path><path fill="#5287FF" d="m6.875 21.257 23.28 6.467a2.1 2.1 0 0 1 1.453 1.443l4.385 15.347a1.048 1.048 0 0 1-1.315 1.29L10.294 38.3a2.1 2.1 0 0 1-1.36-1.305L4.34 23.974a2.095 2.095 0 0 1 2.536-2.717Z"></path></g></svg>